# xmcd
# 
# Track frame offsets:
#     150
#     16850
#     34100
#     52412
#     67925
#     85325
#     101525
#     121100
#     136612
#     152037
# 
# Disc length: 2222
# 
# Revision: 3
# Processed by: cddbd v1.5.2PL0 Copyright (c) Steve Scherf et al.
# Submitted via: BonkEnc v1.0.8
# 
DISCID=7708ac0a
DTITLE=Bellamy Brothers - Greatest Hits Volume Two
DYEAR=1986
DGENRE=
TTITLE0=Feelin' The Feelin'
TTITLE1=When I'm Away From You
TTITLE2=Old Hippie
TTITLE3=Lie To You For Your Love
TTITLE4=Too Much Is Not Enough
TTITLE5=Forget About Me
TTITLE6=World's Greatest Lover
TTITLE7=I Need More Of You
TTITLE8=Strong Weakness
TTITLE9=I Love Her MInd
EXTD=
EXTT0=
EXTT1=
EXTT2=
EXTT3=
EXTT4=
EXTT5=
EXTT6=
EXTT7=
EXTT8=
EXTT9=
PLAYORDER=
